<svg id="visual" viewBox="0 0 900 600" width="900" height="600" xmlns="http://www.w3.org/2000/svg" xmlns:xlink="http://www.w3.org/1999/xlink" version="1.1"><g><g transform="translate(717 104)"><path d="M70.2 -56.5C86 -36.3 90.3 -7.3 84.1 19C77.9 45.3 61.3 69 37.9 81.1C14.6 93.3 -15.5 93.9 -39.7 82.3C-64 70.7 -82.4 46.9 -88.2 20.4C-94 -6 -87.2 -35.1 -70.4 -55.6C-53.6 -76 -26.8 -87.9 0.2 -88.1C27.2 -88.2 54.5 -76.7 70.2 -56.5Z" fill="none" stroke="#16697A" stroke-width="5"></path></g><g transform="translate(316 248)"><path d="M44.1 -36.2C54.1 -22.6 57.1 -4.4 53.2 11.9C49.3 28.3 38.5 42.9 23.6 50.6C8.7 58.4 -10.2 59.4 -25 52.2C-39.8 44.9 -50.6 29.5 -54.3 12.6C-57.9 -4.3 -54.5 -22.5 -44.3 -36.2C-34.1 -49.8 -17 -58.8 0 -58.8C17 -58.8 34.1 -49.8 44.1 -36.2Z" fill="none" stroke="#16697A" stroke-width="5"></path></g><g transform="translate(57 100)"><path d="M56.3 -44.8C68.8 -29.4 71.6 -6.2 66.7 15.3C61.8 36.7 49.3 56.4 31.3 65.2C13.3 73.9 -10 71.6 -28.9 61.8C-47.8 52.1 -62.2 34.8 -67.6 14.5C-73 -5.8 -69.4 -29.2 -56.6 -44.7C-43.9 -60.2 -21.9 -68 0 -68C22 -68 43.9 -60.3 56.3 -44.8Z" stroke="#16697A" fill="none" stroke-width="5"></path></g><g transform="translate(262 498)"><path d="M42.3 -33.8C52.8 -20.6 57.9 -3.1 54.8 13.4C51.8 29.9 40.5 45.3 25.2 52.9C9.9 60.5 -9.4 60.1 -24.4 52.3C-39.3 44.4 -49.9 29.1 -54.1 12C-58.2 -5.1 -56 -24 -45.9 -37.1C-35.8 -50.3 -17.9 -57.7 -1 -56.9C15.9 -56.1 31.8 -47.1 42.3 -33.8Z" stroke="#16697A" fill="none" stroke-width="5"></path></g><g transform="translate(55 317)"><path d="M51 -40.4C62.6 -26.1 66.1 -5.1 62 14.7C57.9 34.4 46.1 52.9 29 61.7C11.9 70.5 -10.6 69.6 -29.1 60.6C-47.7 51.6 -62.4 34.6 -66.1 15.8C-69.9 -3 -62.7 -23.7 -49.9 -38.3C-37 -52.9 -18.5 -61.5 0.6 -62C19.7 -62.4 39.4 -54.7 51 -40.4Z" stroke="#16697A" fill="none" stroke-width="5"></path></g></g></svg>