<svg id="visual" viewBox="0 0 900 450" width="900" height="450" xmlns="http://www.w3.org/2000/svg" xmlns:xlink="http://www.w3.org/1999/xlink" version="1.1"><path d="M0 96L11.5 104.2C23 112.3 46 128.7 69 120.3C92 112 115 79 138.2 82.8C161.3 86.7 184.7 127.3 207.8 131.2C231 135 254 102 277 96.7C300 91.3 323 113.7 346 132.3C369 151 392 166 415.2 170.5C438.3 175 461.7 169 484.8 161.5C508 154 531 145 554 141.3C577 137.7 600 139.3 623 134.2C646 129 669 117 692.2 110.2C715.3 103.3 738.7 101.7 761.8 94.2C785 86.7 808 73.3 831 86.8C854 100.3 877 140.7 888.5 160.8L900 181L900 0L888.5 0C877 0 854 0 831 0C808 0 785 0 761.8 0C738.7 0 715.3 0 692.2 0C669 0 646 0 623 0C600 0 577 0 554 0C531 0 508 0 484.8 0C461.7 0 438.3 0 415.2 0C392 0 369 0 346 0C323 0 300 0 277 0C254 0 231 0 207.8 0C184.7 0 161.3 0 138.2 0C115 0 92 0 69 0C46 0 23 0 11.5 0L0 0Z" fill="#f6f6f6"></path><path d="M0 195L11.5 201.7C23 208.3 46 221.7 69 208.8C92 196 115 157 138.2 152.5C161.3 148 184.7 178 207.8 187.8C231 197.7 254 187.3 277 191.2C300 195 323 213 346 221.2C369 229.3 392 227.7 415.2 224.7C438.3 221.7 461.7 217.3 484.8 220.3C508 223.3 531 233.7 554 229.2C577 224.7 600 205.3 623 197.8C646 190.3 669 194.7 692.2 190.8C715.3 187 738.7 175 761.8 161.5C785 148 808 133 831 148C854 163 877 208 888.5 230.5L900 253L900 179L888.5 158.8C877 138.7 854 98.3 831 84.8C808 71.3 785 84.7 761.8 92.2C738.7 99.7 715.3 101.3 692.2 108.2C669 115 646 127 623 132.2C600 137.3 577 135.7 554 139.3C531 143 508 152 484.8 159.5C461.7 167 438.3 173 415.2 168.5C392 164 369 149 346 130.3C323 111.7 300 89.3 277 94.7C254 100 231 133 207.8 129.2C184.7 125.3 161.3 84.7 138.2 80.8C115 77 92 110 69 118.3C46 126.7 23 110.3 11.5 102.2L0 94Z" fill="#95c8c2"></path><path d="M0 276L11.5 279C23 282 46 288 69 287.2C92 286.3 115 278.7 138.2 286.8C161.3 295 184.7 319 207.8 322.8C231 326.7 254 310.3 277 300.7C300 291 323 288 346 289.5C369 291 392 297 415.2 298.5C438.3 300 461.7 297 484.8 297.7C508 298.3 531 302.7 554 295.2C577 287.7 600 268.3 623 264.7C646 261 669 273 692.2 294C715.3 315 738.7 345 761.8 345.7C785 346.3 808 317.7 831 309.3C854 301 877 313 888.5 319L900 325L900 251L888.5 228.5C877 206 854 161 831 146C808 131 785 146 761.8 159.5C738.7 173 715.3 185 692.2 188.8C669 192.7 646 188.3 623 195.8C600 203.3 577 222.7 554 227.2C531 231.7 508 221.3 484.8 218.3C461.7 215.3 438.3 219.7 415.2 222.7C392 225.7 369 227.3 346 219.2C323 211 300 193 277 189.2C254 185.3 231 195.7 207.8 185.8C184.7 176 161.3 146 138.2 150.5C115 155 92 194 69 206.8C46 219.7 23 206.3 11.5 199.7L0 193Z" fill="#009991"></path><path d="M0 361L11.5 362.5C23 364 46 367 69 364C92 361 115 352 138.2 356.5C161.3 361 184.7 379 207.8 384.3C231 389.7 254 382.3 277 375.7C300 369 323 363 346 354.7C369 346.3 392 335.7 415.2 337.2C438.3 338.7 461.7 352.3 484.8 355.3C508 358.3 531 350.7 554 343.8C577 337 600 331 623 334C646 337 669 349 692.2 361C715.3 373 738.7 385 761.8 388.8C785 392.7 808 388.3 831 384.7C854 381 877 378 888.5 376.5L900 375L900 323L888.5 317C877 311 854 299 831 307.3C808 315.7 785 344.3 761.8 343.7C738.7 343 715.3 313 692.2 292C669 271 646 259 623 262.7C600 266.3 577 285.7 554 293.2C531 300.7 508 296.3 484.8 295.7C461.7 295 438.3 298 415.2 296.5C392 295 369 289 346 287.5C323 286 300 289 277 298.7C254 308.3 231 324.7 207.8 320.8C184.7 317 161.3 293 138.2 284.8C115 276.7 92 284.3 69 285.2C46 286 23 280 11.5 277L0 274Z" fill="#009991"></path><path d="M0 424L11.5 418.8C23 413.7 46 403.3 69 397.3C92 391.3 115 389.7 138.2 393.3C161.3 397 184.7 406 207.8 413.5C231 421 254 427 277 424C300 421 323 409 346 402.3C369 395.7 392 394.3 415.2 397.3C438.3 400.3 461.7 407.7 484.8 409.2C508 410.7 531 406.3 554 401.2C577 396 600 390 623 391.5C646 393 669 402 692.2 408.7C715.3 415.3 738.7 419.7 761.8 418.8C785 418 808 412 831 413.5C854 415 877 424 888.5 428.5L900 433L900 373L888.5 374.5C877 376 854 379 831 382.7C808 386.3 785 390.7 761.8 386.8C738.7 383 715.3 371 692.2 359C669 347 646 335 623 332C600 329 577 335 554 341.8C531 348.7 508 356.3 484.8 353.3C461.7 350.3 438.3 336.7 415.2 335.2C392 333.7 369 344.3 346 352.7C323 361 300 367 277 373.7C254 380.3 231 387.7 207.8 382.3C184.7 377 161.3 359 138.2 354.5C115 350 92 359 69 362C46 365 23 362 11.5 360.5L0 359Z" fill="#95c8c2"></path><path d="M0 451L11.5 451C23 451 46 451 69 451C92 451 115 451 138.2 451C161.3 451 184.7 451 207.8 451C231 451 254 451 277 451C300 451 323 451 346 451C369 451 392 451 415.2 451C438.3 451 461.7 451 484.8 451C508 451 531 451 554 451C577 451 600 451 623 451C646 451 669 451 692.2 451C715.3 451 738.7 451 761.8 451C785 451 808 451 831 451C854 451 877 451 888.5 451L900 451L900 431L888.5 426.5C877 422 854 413 831 411.5C808 410 785 416 761.8 416.8C738.7 417.7 715.3 413.3 692.2 406.7C669 400 646 391 623 389.5C600 388 577 394 554 399.2C531 404.3 508 408.7 484.8 407.2C461.7 405.7 438.3 398.3 415.2 395.3C392 392.3 369 393.7 346 400.3C323 407 300 419 277 422C254 425 231 419 207.8 411.5C184.7 404 161.3 395 138.2 391.3C115 387.7 92 389.3 69 395.3C46 401.3 23 411.7 11.5 416.8L0 422Z" fill="#f6f6f6"></path></svg>